<mxfile host="Electron" modified="2023-12-31T13:29:17.926Z" agent="Mozilla/5.0 (Windows NT 10.0; Win64; x64) AppleWebKit/537.36 (KHTML, like Gecko) draw.io/22.1.11 Chrome/114.0.5735.289 Electron/25.9.8 Safari/537.36" etag="mxKFuMJ3tAsCfmobIwoP" version="22.1.11" type="device">
  <diagram id="C5RBs43oDa-KdzZeNtuy" name="Page-1">
    <mxGraphModel dx="794" dy="519" grid="1" gridSize="10" guides="1" tooltips="1" connect="1" arrows="1" fold="1" page="1" pageScale="1" pageWidth="827" pageHeight="1169" math="0" shadow="0">
      <root>
        <mxCell id="WIyWlLk6GJQsqaUBKTNV-0" />
        <mxCell id="WIyWlLk6GJQsqaUBKTNV-1" parent="WIyWlLk6GJQsqaUBKTNV-0" />
        <mxCell id="o1u1MYzsHF39VY5OT2Ip-2" style="edgeStyle=orthogonalEdgeStyle;rounded=0;orthogonalLoop=1;jettySize=auto;html=1;exitX=0.5;exitY=1;exitDx=0;exitDy=0;" edge="1" parent="WIyWlLk6GJQsqaUBKTNV-1" source="o1u1MYzsHF39VY5OT2Ip-0">
          <mxGeometry relative="1" as="geometry">
            <mxPoint x="444.66668701171875" y="201" as="targetPoint" />
          </mxGeometry>
        </mxCell>
        <mxCell id="o1u1MYzsHF39VY5OT2Ip-0" value="sum = 0&lt;br&gt;count = 0" style="rounded=0;whiteSpace=wrap;html=1;" vertex="1" parent="WIyWlLk6GJQsqaUBKTNV-1">
          <mxGeometry x="400" y="90" width="90" height="40" as="geometry" />
        </mxCell>
        <mxCell id="o1u1MYzsHF39VY5OT2Ip-4" style="edgeStyle=orthogonalEdgeStyle;rounded=0;orthogonalLoop=1;jettySize=auto;html=1;exitX=0.5;exitY=1;exitDx=0;exitDy=0;entryX=0.5;entryY=0;entryDx=0;entryDy=0;" edge="1" parent="WIyWlLk6GJQsqaUBKTNV-1" source="o1u1MYzsHF39VY5OT2Ip-1" target="o1u1MYzsHF39VY5OT2Ip-3">
          <mxGeometry relative="1" as="geometry" />
        </mxCell>
        <mxCell id="o1u1MYzsHF39VY5OT2Ip-1" value="读num" style="shape=parallelogram;perimeter=parallelogramPerimeter;whiteSpace=wrap;html=1;fixedSize=1;" vertex="1" parent="WIyWlLk6GJQsqaUBKTNV-1">
          <mxGeometry x="400" y="200" width="80" height="40" as="geometry" />
        </mxCell>
        <mxCell id="o1u1MYzsHF39VY5OT2Ip-6" value="Y" style="edgeStyle=orthogonalEdgeStyle;rounded=0;orthogonalLoop=1;jettySize=auto;html=1;exitX=0;exitY=0.5;exitDx=0;exitDy=0;entryX=0.5;entryY=1;entryDx=0;entryDy=0;" edge="1" parent="WIyWlLk6GJQsqaUBKTNV-1" source="o1u1MYzsHF39VY5OT2Ip-3" target="o1u1MYzsHF39VY5OT2Ip-5">
          <mxGeometry relative="1" as="geometry" />
        </mxCell>
        <mxCell id="o1u1MYzsHF39VY5OT2Ip-9" value="N" style="edgeStyle=orthogonalEdgeStyle;rounded=0;orthogonalLoop=1;jettySize=auto;html=1;exitX=0.5;exitY=1;exitDx=0;exitDy=0;entryX=0.5;entryY=0;entryDx=0;entryDy=0;" edge="1" parent="WIyWlLk6GJQsqaUBKTNV-1" source="o1u1MYzsHF39VY5OT2Ip-3" target="o1u1MYzsHF39VY5OT2Ip-11">
          <mxGeometry relative="1" as="geometry">
            <mxPoint x="440" y="360" as="targetPoint" />
          </mxGeometry>
        </mxCell>
        <mxCell id="o1u1MYzsHF39VY5OT2Ip-3" value="num != -1?" style="rhombus;whiteSpace=wrap;html=1;" vertex="1" parent="WIyWlLk6GJQsqaUBKTNV-1">
          <mxGeometry x="397.5" y="280" width="85" height="50" as="geometry" />
        </mxCell>
        <mxCell id="o1u1MYzsHF39VY5OT2Ip-8" style="edgeStyle=orthogonalEdgeStyle;rounded=0;orthogonalLoop=1;jettySize=auto;html=1;exitX=0.5;exitY=0;exitDx=0;exitDy=0;" edge="1" parent="WIyWlLk6GJQsqaUBKTNV-1" source="o1u1MYzsHF39VY5OT2Ip-5">
          <mxGeometry relative="1" as="geometry">
            <mxPoint x="445" y="160" as="targetPoint" />
            <Array as="points">
              <mxPoint x="310" y="160" />
              <mxPoint x="445" y="160" />
            </Array>
          </mxGeometry>
        </mxCell>
        <mxCell id="o1u1MYzsHF39VY5OT2Ip-5" value="sum += num&lt;br&gt;count ++" style="rounded=0;whiteSpace=wrap;html=1;" vertex="1" parent="WIyWlLk6GJQsqaUBKTNV-1">
          <mxGeometry x="260" y="200" width="100" height="50" as="geometry" />
        </mxCell>
        <mxCell id="o1u1MYzsHF39VY5OT2Ip-11" value="计算和打印结果" style="shape=parallelogram;perimeter=parallelogramPerimeter;whiteSpace=wrap;html=1;fixedSize=1;" vertex="1" parent="WIyWlLk6GJQsqaUBKTNV-1">
          <mxGeometry x="380" y="380" width="120" height="60" as="geometry" />
        </mxCell>
      </root>
    </mxGraphModel>
  </diagram>
</mxfile>
